PathFileType	3	(X/Y/Z)	squats_2__view2_aligned.trc
DataRate	CameraRate	NumFrames	NumMarkers	Units	OrigDataRate	OrigDataStartFrame	OrigNumFrames
100.0	100.0	10	19	mm	100.0	504	1550
Frame#	Time	pelvis			neck			head			hip_left			hip_right			knee_left			knee_right			ankle_left			ankle_right			heel_left			heel_right			toe_left			toe_right			shoulder_left			shoulder_right			elbow_left			elbow_right			wrist_left			wrist_right			
		X1	Y1	Z1	X2	Y2	Z2	X3	Y3	Z3	X4	Y4	Z4	X5	Y5	Z5	X6	Y6	Z6	X7	Y7	Z7	X8	Y8	Z8	X9	Y9	Z9	X10	Y10	Z10	X11	Y11	Z11	X12	Y12	Z12	X13	Y13	Z13	X14	Y14	Z14	X15	Y15	Z15	X16	Y16	Z16	X17	Y17	Z17	X18	Y18	Z18	X19	Y19	Z19	
504	5.03000	79.982214	791.309941	63.081680	91.510104	1272.738741	-187.238646	92.341401	1397.940459	-305.643061	5.498893	787.404398	62.710176	154.465085	795.215487	63.453112	-78.023192	492.039046	-196.058144	241.877625	496.560810	-188.730760	-94.991907	178.633322	23.081124	231.210145	178.488034	25.974214	-96.671859	144.522729	67.871815	223.110691	146.786638	71.985679	-82.965404	100.785543	-134.426277	270.392653	84.175664	-120.942518	-76.884559	1241.077698	-151.699952	257.127804	1198.038268	-160.573304	-152.270803	977.186561	-167.120267	298.579143	924.553857	-185.753202	-102.579347	819.265328	-341.845669	236.074574	772.000596	-358.434809
505	5.04000	81.284944	799.478162	60.987023	92.917549	1282.953888	-186.866583	93.662952	1409.037381	-304.652517	6.736594	795.530071	60.761683	155.832843	803.426255	61.212290	-76.682074	494.042835	-192.189016	241.884062	501.192520	-187.798831	-93.781742	178.267791	23.696056	232.596792	182.320317	25.890453	-95.461561	143.836952	68.245097	224.719746	150.434552	71.829505	-81.218603	100.822356	-134.313991	271.336049	88.659104	-121.649523	-75.500306	1251.268749	-151.436915	258.494254	1207.537668	-160.033188	-151.521507	987.110012	-165.100899	299.478193	933.530981	-184.197697	-103.545340	828.064216	-339.862912	238.633927	780.245454	-356.893854
506	5.05000	82.587673	807.646382	58.892367	94.324994	1293.169036	-186.494520	94.984502	1420.134304	-303.661973	7.974295	803.655744	58.813189	157.200601	811.637022	58.971469	-75.340956	496.046624	-188.319888	241.890500	505.824231	-186.866902	-92.571576	177.902260	24.310987	233.983440	186.152600	25.806692	-94.251264	143.151175	68.618380	226.328801	154.082467	71.673331	-79.471802	100.859168	-134.201704	272.279445	93.142543	-122.356527	-74.116052	1261.459800	-151.173878	259.860704	1217.037068	-159.493073	-150.772212	997.033464	-163.081530	300.377243	942.508106	-182.642191	-104.511332	836.863103	-337.880154	241.193279	788.490311	-355.352900
507	5.06000	83.890403	815.814602	56.797710	95.732438	1303.384183	-186.122456	96.306053	1431.231227	-302.671430	9.211996	811.781417	56.864696	158.568360	819.847790	56.730648	-73.999838	498.050412	-184.450760	241.896937	510.455941	-185.934973	-91.361411	177.536730	24.925919	235.370088	189.984883	25.722931	-93.040966	142.465398	68.991662	227.937855	157.730382	71.517156	-77.725001	100.895981	-134.089418	273.222840	97.625982	-123.063531	-72.731798	1271.650851	-150.910841	261.227154	1226.536468	-158.952957	-150.022916	1006.956915	-161.062162	301.276293	951.485231	-181.086686	-105.477325	845.661990	-335.897396	243.752632	796.735169	-353.811945
508	5.07000	84.690523	822.444166	54.006468	96.037105	1312.090690	-185.039058	96.414261	1440.548644	-300.922913	10.046656	818.391869	54.277271	159.333941	826.496465	53.735589	-72.600667	499.834779	-179.949924	240.945396	511.535368	-181.946497	-89.758906	177.144976	25.672765	236.153817	189.031059	26.062679	-91.343074	141.745370	69.455413	229.009237	156.333741	71.560683	-75.948650	100.932867	-133.872093	273.193149	97.913502	-123.815800	-72.387050	1279.983226	-150.004898	261.593777	1235.086044	-158.005226	-150.279752	1015.260673	-158.883035	302.133184	960.036650	-179.660999	-106.184694	854.214038	-333.661632	246.863901	804.574032	-352.482562
509	5.08000	85.490644	829.073729	51.215225	96.341772	1320.797197	-183.955660	96.522469	1449.866062	-299.174397	10.881316	825.002321	51.689846	160.099523	833.145140	50.740530	-71.201496	501.619145	-175.449087	239.993854	512.614795	-177.958020	-88.156401	176.753223	26.419610	236.937546	188.077234	26.402426	-89.645182	141.025341	69.919164	230.080618	154.937101	71.604209	-74.172298	100.969752	-133.654768	273.163459	98.201023	-124.568070	-72.042301	1288.315600	-149.098955	261.960399	1243.635619	-157.057495	-150.536589	1023.564430	-156.703908	302.990076	968.588069	-178.235312	-106.892063	862.766087	-331.425869	249.975170	812.412896	-351.153179
510	5.09000	86.290765	835.703293	48.423983	96.646439	1329.503703	-182.872261	96.630676	1459.183480	-297.425880	11.715975	831.612773	49.102421	160.865105	839.793815	47.745471	-69.802326	503.403512	-170.948251	239.042313	513.694222	-173.969544	-86.553896	176.361469	27.166456	237.721275	187.123410	26.742173	-87.947291	140.305313	70.382914	231.151999	153.540461	71.647736	-72.395946	101.006637	-133.437443	273.133768	98.488543	-125.320339	-71.697553	1296.647975	-148.193013	262.327022	1252.185194	-156.109764	-150.793425	1031.868188	-154.524781	303.846968	977.139488	-176.809625	-107.599432	871.318136	-329.190105	253.086440	820.251760	-349.823796
511	5.10000	87.090886	842.332856	45.632740	96.951106	1338.210210	-181.788863	96.738884	1468.500897	-295.677364	12.550635	838.223225	46.514996	161.630687	846.442489	44.750412	-68.403155	505.187879	-166.447414	238.090771	514.773648	-169.981068	-84.951392	175.969716	27.913302	238.505004	186.169585	27.081920	-86.249399	139.585285	70.846665	232.223381	152.143820	71.691262	-70.619595	101.043523	-133.220119	273.104077	98.776063	-126.072608	-71.352805	1304.980349	-147.287070	262.693645	1260.734769	-155.162033	-151.050261	1040.171945	-152.345655	304.703860	985.690907	-175.383938	-108.306801	879.870184	-326.954342	256.197709	828.090624	-348.494414
512	5.11000	87.891007	848.962420	42.841498	97.255773	1346.916716	-180.705464	96.847092	1477.818315	-293.928848	13.385295	844.833678	43.927571	162.396269	853.091164	41.755353	-67.003984	506.972245	-161.946578	237.139230	515.853075	-165.992592	-83.348887	175.577962	28.660148	239.288733	185.215760	27.421668	-84.551507	138.865256	71.310416	233.294762	150.747180	71.734788	-68.843243	101.080408	-133.002794	273.074387	99.063584	-126.824877	-71.008056	1313.312723	-146.381128	263.060268	1269.284344	-154.214302	-151.307098	1048.475703	-150.166528	305.560751	994.242326	-173.958251	-109.014170	888.422233	-324.718578	259.308978	835.929487	-347.165031
513	5.12000	88.691128	855.591983	40.050255	97.560440	1355.623223	-179.622066	96.955300	1487.135733	-292.180331	14.219955	851.444130	41.340147	163.161850	859.739839	38.760294	-65.604813	508.756612	-157.445741	236.187688	516.932502	-162.004115	-81.746382	175.186209	29.406993	240.072462	184.261936	27.761415	-82.853615	138.145228	71.774167	234.366143	149.350539	71.778315	-67.066892	101.117294	-132.785469	273.044696	99.351104	-127.577146	-70.663308	1321.645098	-145.475185	263.426891	1277.833919	-153.266571	-151.563934	1056.779461	-147.987401	306.417643	1002.793745	-172.532564	-109.721538	896.974281	-322.482814	262.420248	843.768351	-345.835648
